<svg id="Layer_1" data-name="Layer 1" xmlns="http://www.w3.org/2000/svg" viewBox="0 0 400 400"><defs><style>.cls-1{fill:#1469eb;}.cls-2{fill:#fff;}</style></defs><rect class="cls-1" x="-19.27" y="-19.32" width="438.64" height="438.64"/><path class="cls-2" d="M71.31,199.89l-3.74,2c.37.88.82,2.11,1.35,3.7a23.53,23.53,0,0,1,1,4.18c0,.29-.53.64-1.45,1a17.55,17.55,0,0,1-4,1,37.23,37.23,0,0,1-6.05.44,31,31,0,0,1-5.89-.5,11.46,11.46,0,0,1-3.85-1.35,3.07,3.07,0,0,1-1.56-2,7.61,7.61,0,0,1,.16-2.09,22.82,22.82,0,0,1,.64-2.49c.1-.29.18-.55.24-.79l-3.46-1.67a20.28,20.28,0,0,0-1.22,4,14.35,14.35,0,0,0-.3,4,6.75,6.75,0,0,0,2.11,4.37,12.19,12.19,0,0,0,5.28,2.73,30.07,30.07,0,0,0,7.65.92h.4a32,32,0,0,0,7.44-.84A13,13,0,0,0,71.58,214a5.61,5.61,0,0,0,2.11-4.22A18.42,18.42,0,0,0,73,204.9,32.52,32.52,0,0,0,71.31,199.89Z"/><path class="cls-2" d="M53.26,203.17l1.61,1.61,1.57-1.57,1.62-1.65L56.48,200l-1.61-1.59L53.32,200l-1.63,1.64Z"/><path class="cls-2" d="M60.3,203.17c.36.36.91.89,1.66,1.61l1.55-1.57,1.59-1.65L63.53,200c-.36-.34-.9-.87-1.61-1.59L60.36,200l-1.63,1.64Z"/><path class="cls-2" d="M95.18,188.11l-4.38,1v0q.67,5.18,1,8.8c.2,2.41.29,4.94.29,7.6a5.35,5.35,0,0,1-1.91,4.29,11.94,11.94,0,0,1-4.84,2.38c.63-2.13.58-4.92-.15-8.39a55.18,55.18,0,0,0-4.36-12.25l-3.7,2.55a71,71,0,0,1,4.18,11.55c.79,3.13.86,5.56.24,7.29-1.11.17-2.28.31-3.54.41l1.27,4.82a27.56,27.56,0,0,0,8.52-1.71,15,15,0,0,0,6.16-4.22,10.33,10.33,0,0,0,2.43-6.76c0-2.82-.06-5.58-.26-8.3S95.6,191.45,95.18,188.11Z"/><path class="cls-2" d="M195.05,200.68a5,5,0,0,0-2.59.92,10.23,10.23,0,0,0-2.31,2.22,26,26,0,0,0-2.15,3.39l-.47.91a7.93,7.93,0,0,1-2.33,2.81,4.9,4.9,0,0,1-2.85.93h-1.87a8.31,8.31,0,0,1-3.2-.56,6.8,6.8,0,0,1-1.84-1.07,18.16,18.16,0,0,1,2.54-1.15l-.16-4.58a20.14,20.14,0,0,1-3.4-.95,33.87,33.87,0,0,1-3.64-1.72l-.52-.27h0a45.38,45.38,0,0,0-4.42-2,9.83,9.83,0,0,0-3.14-.58,7.07,7.07,0,0,0-4.44,1.41,11.49,11.49,0,0,0-3.36,4.32l2.9,2.11a7.4,7.4,0,0,1,2-2.05,4.46,4.46,0,0,1,2.79-.86,9.56,9.56,0,0,1,2.9.5,21.83,21.83,0,0,1,3.27,1.37,28.66,28.66,0,0,0,3.52,1.55,43.26,43.26,0,0,1-5.75,2.55,34.26,34.26,0,0,1-5.73,1.49,35.47,35.47,0,0,1-6.13.5H151.4l-1.35,0c-.5,0-1,.06-1.44.1a8.82,8.82,0,0,0,1.44-4.16,7.35,7.35,0,0,0-.76-4.11,6.91,6.91,0,0,0-2.81-2.91,8.33,8.33,0,0,0-4.19-1c-2.68,0-5.36,1.18-8,3.56a29.88,29.88,0,0,0-6.06,7.77,4.15,4.15,0,0,1-1-1.9,13,13,0,0,1,0-4.86l-3.74-.75a20.93,20.93,0,0,1-1.1,4.79A5.62,5.62,0,0,1,120.4,211a5.19,5.19,0,0,1-3.1.85h-1.63a22.58,22.58,0,0,0-.88-4.12,13.93,13.93,0,0,0-3-5.33,5.45,5.45,0,0,0-8.69.14,11.27,11.27,0,0,0-2.57,5.29,8.47,8.47,0,0,0,.46,5.37,5.12,5.12,0,0,0,2.86,2.71,14.06,14.06,0,0,0,4.46,1c1,.06,2.16.1,3.53.11a5.86,5.86,0,0,1-1,1.85,10.65,10.65,0,0,1-4.15,3A38.67,38.67,0,0,1,99.44,224l1.55,4.49a23.62,23.62,0,0,0,8-2.82,14.72,14.72,0,0,0,5.12-4.86,11.67,11.67,0,0,0,1.49-3.84l1.75,0h0a8.63,8.63,0,0,0,4.4-1,8.16,8.16,0,0,0,2.88-3,7.29,7.29,0,0,0,3.32,3.58,13.53,13.53,0,0,0,6.43,1.27,23.6,23.6,0,0,0,7.84-1.21l.46-.19.31.09a19.61,19.61,0,0,0,3.27.4c1.19.05,2.93.07,5.19.07h2.39a34,34,0,0,0,6.84-.63,35.21,35.21,0,0,0,6-1.81q2.34-1,5.27-2.45a7.8,7.8,0,0,0,2.84,3.22,12.77,12.77,0,0,0,6.83,1.67h.71a8.32,8.32,0,0,0,4.6-1.29,8.09,8.09,0,0,0,1.91-1.75q7.11,4.49,10.13,2.73,2.87-1.59,3.28-5.63a11.33,11.33,0,0,0-1.59-7.31A5.78,5.78,0,0,0,195.05,200.68Zm-87.28,11q-2.73-.25-3.48-1.29a2.56,2.56,0,0,1-.18-2.13,5.14,5.14,0,0,1,1.31-2.37,2.25,2.25,0,0,1,2-.79,3.76,3.76,0,0,1,2.49,1.69,10.68,10.68,0,0,1,1.67,3.68c.12.47.22.94.3,1.42C110.28,211.82,108.89,211.75,107.77,211.64Zm25.72,1.14a14.59,14.59,0,0,1-1.85-.15,25,25,0,0,1,4.3-5,10.87,10.87,0,0,1,6.35-3,4.76,4.76,0,0,1,3,.78,2.13,2.13,0,0,1,1,2,3.92,3.92,0,0,1-1.77,2.62,13,13,0,0,1-4.52,2.05A23.12,23.12,0,0,1,133.49,212.78Zm64-.44c-.42.29-1.38.12-2.88-.52a24.58,24.58,0,0,1-3.65-2,16.39,16.39,0,0,1,2.12-3.27,3.14,3.14,0,0,1,2.19-1.27,2.72,2.72,0,0,1,2.38,1.47,5.87,5.87,0,0,1,.9,3.22A2.53,2.53,0,0,1,197.51,212.34Z"/><path class="cls-2" d="M282.4,207.09c-.59-1.65-2.36-3.33-5.29-5.06s-7.51-3.56-13.75-5.53l-1.91,4.74,1.24.34c-.21.28-.41.56-.6.87a11.72,11.72,0,0,0-1.63,4.32,5.88,5.88,0,0,0,1.33,5c-1,.06-2.17.09-3.4.09h-.68a1.91,1.91,0,0,1-1.65-1.09,19.08,19.08,0,0,1-1.49-3.84,12.13,12.13,0,0,0-2.49-4.7,5.07,5.07,0,0,0-4-1.55,4.85,4.85,0,0,0-2.58.86,9.85,9.85,0,0,0-2.31,2.19,28.34,28.34,0,0,0-2.23,3.36l-.59,1a8.49,8.49,0,0,1-2.33,2.81,4.71,4.71,0,0,1-2.81.93h-1a4.07,4.07,0,0,1-2-.38,2.44,2.44,0,0,1-1-1.35,13.48,13.48,0,0,1-.55-3c-.11-.69-.37-3-.8-6.85-.13-1.4-.28-2.81-.44-4.21l-4.17.87c.11.87.22,1.66.31,2.39a24.86,24.86,0,0,0-6.16,3.36,7.83,7.83,0,0,0-3.19,5.27,5.56,5.56,0,0,0,1.36,4.68,7.84,7.84,0,0,0,4.81,2.29,14.62,14.62,0,0,0,6.24-.59,5.66,5.66,0,0,0,1.78,1.74,7.38,7.38,0,0,0,3.84.91h.91a8.51,8.51,0,0,0,3.66-.77,7.82,7.82,0,0,0,2.87-2.29q7.13,4.53,10.1,2.75a3.89,3.89,0,0,0,1.26-1,4.1,4.1,0,0,0,.81-1.47,5.54,5.54,0,0,0,1.62,2,3.73,3.73,0,0,0,2.32.73h.68a36.5,36.5,0,0,0,8.61-.83c.39-.1.74-.22,1.1-.34a18.7,18.7,0,0,0,7.2,1.13q5.77-.19,7-4A9,9,0,0,0,282.4,207.09Zm-58.57,3.06a5.44,5.44,0,0,1-2.88-.64,1.67,1.67,0,0,1-1-1.59c.08-.77.88-1.58,2.39-2.42a18.74,18.74,0,0,1,3.65-1.56V204l.52,3.82c.07.66.16,1.27.27,1.85A11.07,11.07,0,0,1,223.83,210.15ZM251.51,212a4,4,0,0,1-.2.68,3.56,3.56,0,0,1-1.57-.06,12.44,12.44,0,0,1-2.69-.92,19.8,19.8,0,0,1-3.26-1.89l.36-.63a14.66,14.66,0,0,1,1.39-2.17,6.19,6.19,0,0,1,1.33-1.3,2.29,2.29,0,0,1,1.25-.43,2.46,2.46,0,0,1,2,1.15,6.87,6.87,0,0,1,1.18,2.71A9.88,9.88,0,0,1,251.51,212Zm17.21-8.57a3.61,3.61,0,0,1,1.15.67,4.08,4.08,0,0,1,1.09,1.61,3.61,3.61,0,0,1,.2,1.91q-.35,2.16-3.29,3.18l-.31-.13q-3.4-1.65-3.36-3.68a3.29,3.29,0,0,1,.62-1.91,4.29,4.29,0,0,1,1.53-1.41,2.91,2.91,0,0,1,1.83-.38,3,3,0,0,1,.43.1Zm10.16,7.42q-.56,1.74-4.24,1.61c-.54,0-1.07-.08-1.6-.15a10.29,10.29,0,0,0,1.5-4.13,9.09,9.09,0,0,0,0-2.27,15.77,15.77,0,0,1,3,2C278.8,209,279.23,210,278.88,210.87Z"/><rect class="cls-2" x="164.64" y="164.26" width="118.18" height="23.4" rx="11.7"/><path class="cls-1" d="M179.72,182.21a3.25,3.25,0,0,1-1.44-1.4,3.92,3.92,0,0,1-.42-2.18,5.94,5.94,0,0,1,.29-1.54,10.61,10.61,0,0,1,.58-1.48l1.15.52,0,.08a10.49,10.49,0,0,0-.49,1.27,4.2,4.2,0,0,0-.19,1.16,2.52,2.52,0,0,0,.29,1.31,1.89,1.89,0,0,0,.92.79,3.65,3.65,0,0,0,1.49.26,4.62,4.62,0,0,0,1.43-.21,4,4,0,0,0,1.09-.55,2.25,2.25,0,0,0,.64-.72.9.9,0,0,0-.26-.13l-.49-.17-.78-.21a5.44,5.44,0,0,1-1.14-.46,1.47,1.47,0,0,1-.58-.61,1.81,1.81,0,0,1-.15-.95,4.25,4.25,0,0,1,.61-1.9,4.2,4.2,0,0,1,1.4-1.41,3.25,3.25,0,0,1,1.78-.5,3.49,3.49,0,0,1,.71.11,1.4,1.4,0,0,1,.52.25l-.5,1.46a.91.91,0,0,0-.34-.1,3.07,3.07,0,0,0-.42,0,2.18,2.18,0,0,0-1.09.22,2.74,2.74,0,0,0-.89.68,1.92,1.92,0,0,0-.45.87.47.47,0,0,0,0,.34,1,1,0,0,0,.41.28,7.25,7.25,0,0,0,1,.32,5.43,5.43,0,0,1,1.24.43,1.54,1.54,0,0,1,.6.48,1.2,1.2,0,0,1,.16.61,2.8,2.8,0,0,1-.56,1.72,4.25,4.25,0,0,1-1.64,1.35,5.23,5.23,0,0,1-2.32.51A4.78,4.78,0,0,1,179.72,182.21Z"/><path class="cls-1" d="M188.2,176.75c0-1.25,0-2.49-.09-3.74a21.84,21.84,0,0,0-.22-2.56l1.43-.3c.06.48.13,1.35.19,2.61s.1,2.55.1,3.87a25.61,25.61,0,0,1-.14,3l-1.37-.15A26.34,26.34,0,0,0,188.2,176.75Z"/><path class="cls-1" d="M191.26,181.15a5.32,5.32,0,0,0,1.1-.94,1.4,1.4,0,0,0,.42-.86,7.37,7.37,0,0,0-.22-1.25q-.21-.91-.51-1.95l1.31-.5a15.11,15.11,0,0,1,.49,1.93,9.56,9.56,0,0,1,.19,1.77,3.16,3.16,0,0,1-.46,1.59,5.09,5.09,0,0,1-1.29,1.39,7.21,7.21,0,0,1-1.9,1l-.68-1.43A7.51,7.51,0,0,0,191.26,181.15Zm2.19-2.17a5.21,5.21,0,0,1-.86-1.77l1-.63a2.43,2.43,0,0,0,.45,1,1,1,0,0,0,.76.3h.11l.09.85-.09.83h-.11A1.72,1.72,0,0,1,193.45,179Z"/><path class="cls-1" d="M194.81,177.91h.68a3,3,0,0,0,1.4-.24.76.76,0,0,0,.43-.71,4.45,4.45,0,0,0-.26-1.11c-.18-.54-.33-.93-.44-1.19l1.22-.67a9.9,9.9,0,0,1,.53,1.47,5.8,5.8,0,0,1,.26,1.59,2.31,2.31,0,0,1-.83,1.89,3.55,3.55,0,0,1-2.31.65h-.68Zm1.1,3.31.55-.53.57.55q.19.18.54.54l-.56.57-.55.55-.55-.56-.56-.56Z"/><path class="cls-1" d="M204.05,179.2a2,2,0,0,1-.78-1.1,2.76,2.76,0,0,1,0-1.48,4,4,0,0,1,.66-1.47,8.74,8.74,0,0,1,1.16-1.34l.8,1a6.67,6.67,0,0,0-1.06,1.09,2,2,0,0,0-.43,1,.86.86,0,0,0,.27.77,1.5,1.5,0,0,0,.94.3,1.89,1.89,0,0,0,1-.19.74.74,0,0,0,.43-.6,2.38,2.38,0,0,0-.79-1.4,11.58,11.58,0,0,0-2.21-1.63l.86-1.3a9.68,9.68,0,0,1,2.64,2.18,3.26,3.26,0,0,1,.72,2.34,2.54,2.54,0,0,1-.45,1.21,2.43,2.43,0,0,1-1,.8,3,3,0,0,1-1.3.25A2.62,2.62,0,0,1,204.05,179.2Z"/><path class="cls-1" d="M210.15,179.33a4.77,4.77,0,0,1-1.18-.69l.64-1.2.08.06a7.27,7.27,0,0,0,.95.39,4.18,4.18,0,0,0,1.2.15,3.29,3.29,0,0,0,1.14-.16,1.34,1.34,0,0,0,.6-.38,1.29,1.29,0,0,0-.13-.77,4.09,4.09,0,0,0-.83-1.15,10.89,10.89,0,0,0-1.72-1.47l.81-1.46a9.77,9.77,0,0,1,2,1.86,5.53,5.53,0,0,1,1.07,2,2.55,2.55,0,0,1-.06,1.77,2.06,2.06,0,0,1-1,1,3.79,3.79,0,0,1-1.7.37A4.47,4.47,0,0,1,210.15,179.33Z"/><path class="cls-1" d="M217.45,179.24a2,2,0,0,1-.82-1.07,5.79,5.79,0,0,1-.25-1.82c0-1,0-2.07-.07-3.21a26.07,26.07,0,0,0-.23-2.69l1.42-.3c.09.62.16,1.56.21,2.83s.08,2.32.07,3.17a4.7,4.7,0,0,0,.05,1.08.76.76,0,0,0,.35.52,1.54,1.54,0,0,0,.81.16h.06l.08.85-.08.83H219A2.88,2.88,0,0,1,217.45,179.24Z"/><path class="cls-1" d="M218.9,177.91h.31a12.29,12.29,0,0,0,2.16-.15,3.47,3.47,0,0,0,1.22-.45,1.61,1.61,0,0,0,.58-.78,1.17,1.17,0,0,0-.06-.58,1.35,1.35,0,0,0-.31-.51.9.9,0,0,0-.51-.26.87.87,0,0,0-.59.12,1.27,1.27,0,0,0-.44.45,1.53,1.53,0,0,0-.21.61,1,1,0,0,0,.33.75,2.55,2.55,0,0,0,1,.58,4.41,4.41,0,0,0,1.49.22h1.39l.09.84-.09.84h-.78a6.68,6.68,0,0,1-2.53-.45,3.76,3.76,0,0,1-1.67-1.24,2.19,2.19,0,0,1-.43-1.67,3.56,3.56,0,0,1,.5-1.4,2.94,2.94,0,0,1,1-1,1.87,1.87,0,0,1,2.3.29,2.86,2.86,0,0,1,.7,1.18,3,3,0,0,1,.13,1.36,2.78,2.78,0,0,1-1.49,2.19,7.71,7.71,0,0,1-3.7.71h-.31Zm2.81-6.76.55-.53.57.54.54.55-.56.57-.55.55-.55-.56-.56-.56Z"/><path class="cls-1" d="M225.07,177.91h.1a10.56,10.56,0,0,0,1.58-.09,1.8,1.8,0,0,0,.8-.28.91.91,0,0,0,.33-.51,2.85,2.85,0,0,0,0-.67,8.19,8.19,0,0,0-.12-1v-.09l1.23-.22a12.05,12.05,0,0,1,.17,2.12.85.85,0,0,0,.34.51,1.23,1.23,0,0,0,.7.18h.08l.09.85-.09.83h-.08a1.9,1.9,0,0,1-1.12-.34,2.34,2.34,0,0,1-.76-.89l.3,0a1.67,1.67,0,0,1-.62.7,2.84,2.84,0,0,1-1.09.37,10.47,10.47,0,0,1-1.75.11h-.1Zm.62-5.34.51-.51.52.52.52.51c-.24.25-.41.43-.53.54l-.51.52-.53-.53-.52-.51Zm2.3,0q.18-.16.51-.51l.53.52.51.51c-.23.25-.41.43-.52.54l-.51.52-.54-.53c-.11-.12-.29-.29-.51-.51Z"/><path class="cls-1" d="M230.2,179.59l-.1-.84.1-.84h.06a1.86,1.86,0,0,0,.82-.19,1.75,1.75,0,0,0,.63-.48,3.13,3.13,0,0,0,.39-.72c.09-.26.18-.53.26-.81a.15.15,0,0,0,0-.06l1.23.13a.39.39,0,0,1,0,.13c0,.18-.1.38-.15.61a2.84,2.84,0,0,0-.08.59.87.87,0,0,0,.12.6.55.55,0,0,0,.49.2h0l.11.85-.11.83h-.05a1.55,1.55,0,0,1-1-.31,1.59,1.59,0,0,1-.56-.86,2.7,2.7,0,0,1-1,.87,2.32,2.32,0,0,1-1.19.3Zm3.72-1.68H234a1,1,0,0,0,.62-.2,1.89,1.89,0,0,0,.47-.58,3.72,3.72,0,0,0,.27-.74c.07-.29.13-.56.17-.81a0,0,0,0,1,0,0l1.21.05v.12c0,.17-.07.36-.1.58a4.28,4.28,0,0,0,0,.55,1.26,1.26,0,0,0,.22.79.78.78,0,0,0,.66.26h0l.09.85-.09.83h0a1.8,1.8,0,0,1-1.2-.39,2.07,2.07,0,0,1-.64-1.14l.29,0a3.23,3.23,0,0,1-.51.83,2.28,2.28,0,0,1-.67.54,1.61,1.61,0,0,1-.78.19h0Zm3.51,0h0a.85.85,0,0,0,.65-.24.89.89,0,0,0,.24-.66,3.81,3.81,0,0,0-.26-1.11c-.16-.49-.32-.9-.46-1.23l1.19-.67a10.47,10.47,0,0,1,.53,1.46,5.86,5.86,0,0,1,.28,1.61,3,3,0,0,1-.28,1.28,2.3,2.3,0,0,1-.77.91,1.92,1.92,0,0,1-1.12.33h0Z"/><path class="cls-1" d="M241.09,176.75c0-1.25,0-2.49-.09-3.74a21.21,21.21,0,0,0-.23-2.56l1.44-.3c.06.48.12,1.35.19,2.61s.1,2.55.1,3.87a23.26,23.26,0,0,1-.15,3l-1.37-.15A25.69,25.69,0,0,0,241.09,176.75Z"/><path class="cls-1" d="M249,182.49a3.28,3.28,0,0,1-1.36-1.3,3.4,3.4,0,0,1-.41-2,6.25,6.25,0,0,1,.3-1.49,10.61,10.61,0,0,1,.58-1.48l1.14.53-.05.09c-.2.46-.35.87-.47,1.24a4.46,4.46,0,0,0-.19,1.11,1.8,1.8,0,0,0,.28,1.05,2,2,0,0,0,.84.73,3,3,0,0,0,1.3.27,2.74,2.74,0,0,0,2.07-.72,2.92,2.92,0,0,0,.63-2.16c-.06-1.71-.13-3.12-.21-4.24,0-.77-.08-1.49-.14-2.14s-.11-1.18-.17-1.57l1.43-.3c.09.66.16,1.94.23,3.83,0,.89.07,1.63.09,2.2s0,1.28.07,2.12a5.62,5.62,0,0,1-.42,2.49,3.44,3.44,0,0,1-1.38,1.6,4.15,4.15,0,0,1-2.2.55A4.25,4.25,0,0,1,249,182.49Zm6.1-3.25a2.26,2.26,0,0,1-.73-1,4.84,4.84,0,0,1-.3-1.54l.84-.17a2.69,2.69,0,0,0,.16.87.76.76,0,0,0,.4.41,2.18,2.18,0,0,0,.82.11h.16l.07.85-.07.83h-.16A2,2,0,0,1,255.13,179.24Z"/><path class="cls-1" d="M256.79,181.24l.56-.54.57.55.54.55-.56.56-.55.56-.56-.57-.55-.55C256.48,181.54,256.67,181.36,256.79,181.24Zm-.45-3.33H257a3.08,3.08,0,0,0,1.41-.24.76.76,0,0,0,.43-.71,4.17,4.17,0,0,0-.27-1.11c-.18-.54-.32-.93-.43-1.19l1.22-.67a11.18,11.18,0,0,1,.53,1.47,5.39,5.39,0,0,1,.25,1.59,2.31,2.31,0,0,1-.82,1.89,3.58,3.58,0,0,1-2.32.65h-.68Z"/><path class="cls-1" d="M262.77,179.24a2,2,0,0,1-.82-1.07,5.51,5.51,0,0,1-.25-1.82c0-1,0-2.07-.07-3.21s-.13-2-.23-2.69l1.42-.3c.09.62.16,1.56.21,2.83s.07,2.32.06,3.17a4.58,4.58,0,0,0,.06,1.08.75.75,0,0,0,.34.52,1.6,1.6,0,0,0,.82.16h.06l.08.85-.08.83h-.06A2.86,2.86,0,0,1,262.77,179.24Z"/><path class="cls-1" d="M264.23,177.91h.18a15.81,15.81,0,0,0,2.29-.13,3.48,3.48,0,0,0,1.38-.47,1.2,1.2,0,0,0,.59-.89,5.15,5.15,0,0,0-.18-1.34,3.33,3.33,0,0,0-.52-1.14,1.15,1.15,0,0,0-.77-.53.81.81,0,0,0-.69.23,1.47,1.47,0,0,0-.43.69.71.71,0,0,0,.08.65,1.49,1.49,0,0,0,1,.51,4.68,4.68,0,0,0,1.59,0l.23,0V177a2,2,0,0,1-.4.08,4.83,4.83,0,0,1-2.13-.12,2.1,2.1,0,0,1-1.34-1,2.71,2.71,0,0,1-.18-1.71,3.29,3.29,0,0,1,.83-1.64,1.92,1.92,0,0,1,1.45-.67,1.87,1.87,0,0,1,1.39.64,4.18,4.18,0,0,1,.93,1.66,5.7,5.7,0,0,1,.26,2.09,2.9,2.9,0,0,1-1.41,2.43,7.32,7.32,0,0,1-4,.86h-.18Zm1.33-8.31.5-.51.53.52.52.51c-.24.25-.41.43-.53.54l-.52.52-.52-.53-.52-.51Zm2.3,0c.12-.11.28-.28.51-.51l.53.52.51.51c-.23.25-.41.43-.52.54l-.51.52-.54-.53c-.11-.12-.29-.29-.51-.51Z"/><path class="cls-2" d="M354.9,187.2H344.71a8.73,8.73,0,0,0,0,17.46H354.9a4.37,4.37,0,0,0,4.36-4.37v-8.72A4.37,4.37,0,0,0,354.9,187.2Zm-10.19,11.64a2.91,2.91,0,1,1,2.91-2.91A2.91,2.91,0,0,1,344.71,198.84Z"/><path class="cls-2" d="M354.9,207.57H344.71a11.65,11.65,0,0,1,0-23.3H354.9a1.45,1.45,0,0,0,1.45-1.46v-4.37A5.78,5.78,0,0,0,351,172.7l-4.23-8.37-3.58-6.26a5.91,5.91,0,0,0-7.9-2.13l-6.58,3.83-22.6,12.89h-5a5.79,5.79,0,0,0-5.82,5.78v34.94a5.83,5.83,0,0,0,5.82,5.82h49.45a5.83,5.83,0,0,0,5.82-5.82V209A1.45,1.45,0,0,0,354.9,207.57Zm-18.15-49.12a2.93,2.93,0,0,1,3.91,1.06l2.84,5a10.15,10.15,0,0,1-12-3ZM329,163h0a12.81,12.81,0,0,0,15.94,4v0l2.67,5.65H311.89Z"/></svg>