<svg xmlns="http://www.w3.org/2000/svg" viewBox="0 0 145.98 40"><defs><style>.cls-1,.cls-4{fill:#716f87;}.cls-1,.cls-3{opacity:0.5;}.cls-2{fill:#14c691;}</style></defs><g id="Layer_2" data-name="Layer 2"><g id="Layer_1-2" data-name="Layer 1"><polygon class="cls-1" points="135.56 9 144.56 0 116.98 0 116.98 9 135.56 9"></polygon><polygon class="cls-1" points="145.98 1.41 136.98 10.41 136.98 39 145.98 30 145.98 1.41"></polygon><polygon class="cls-2" points="134.98 11 134.98 40 126.98 40 126.98 19 114.98 19 114.98 40 105.98 40 105.98 10 114.98 1 114.98 11 134.98 11"></polygon><g class="cls-3"><rect class="cls-4" x="116.98" y="21" width="8" height="19"></rect></g><polyline class="cls-4" points="29.47 9.52 26.84 12.15 24.2 14.78 24.2 18.5 26.06 18.5 29.79 18.5 33.51 18.5 37.23 18.5 37.23 22.23 33.51 22.23 29.79 22.23 26.06 22.23 22.34 22.23 22.34 18.5 22.34 14.78 18.62 14.78 18.62 18.5 18.62 22.23 16.76 22.23 16.76 18.5 16.76 14.78 13.03 14.78 13.03 18.5 13.03 22.23 11.17 22.23 11.17 18.5 11.17 14.78 7.45 14.78 7.45 18.5 7.45 22.23 7.45 25.95 3.72 25.95 3.72 22.23 3.72 18.5 3.72 14.78 0 14.78 0 18.5 0 22.23 0 25.95 0 29.68 3.72 29.68 7.45 29.68 11.17 29.68 11.17 25.95 13.03 25.95 16.76 25.95 18.62 25.95 22.34 25.95 26.06 25.95 29.79 25.95 33.51 25.95 37.23 25.95 40.96 25.95 40.96 22.23 40.96 18.5 40.96 14.78 37.23 14.78 33.51 14.78 29.79 14.78 29.47 14.78 32.1 12.15 32.1 12.15 32.1 9.52 29.47 9.52"></polyline><rect class="cls-4" x="45.61" y="27.81" width="3.72" height="3.72"></rect><polygon class="cls-2" points="72.61 27.81 72.61 31.54 76.33 31.54 80.05 31.54 80.05 27.81 76.33 27.81 72.61 27.81"></polygon><polygon class="cls-4" points="48.41 18.5 48.41 22.23 46.54 22.23 46.54 18.5 46.54 14.78 46.54 11.06 42.82 11.06 42.82 14.78 42.82 18.5 42.82 22.23 42.82 25.95 46.54 25.95 48.41 25.95 52.13 25.95 52.13 22.23 52.13 18.5 52.13 14.78 48.41 14.78 48.41 18.5"></polygon><path class="cls-2" d="M57.71,14.78H54V26h7.45v3.73h3.72V14.78H57.71Zm3.73,7.45H57.71V18.5h3.73Z"></path><path class="cls-2" d="M93.09,14.78H89.36V11.06l-3.72,3.72H78.19v7.45H76.33V14.78H72.61v7.45H70.75V14.78H67v14.9h3.73V26H96.81V14.78ZM81.92,22.23V18.5h3.72v3.73Zm11.17,0H89.36V18.5h3.73Z"></path><g class="cls-3"><rect class="cls-4" x="31.48" y="34.87" width="1.72" height="0.55"></rect><rect class="cls-4" x="41.63" y="38.74" width="1.72" height="0.55"></rect><path class="cls-4" d="M43.39,36.19a1,1,0,0,1-.31.75,1,1,0,0,1-.74.31H37a1,1,0,0,1-.72-.31,1,1,0,0,1-.3-.75V34.72l-.6.15v1.32a1,1,0,0,1-.31.75,1,1,0,0,1-.75.31H15.47v.59H34.29a1.59,1.59,0,0,0,.83-.22,1.78,1.78,0,0,0,.53-.49,1.62,1.62,0,0,0,.56.51,1.65,1.65,0,0,0,.75.2h5.38A1.64,1.64,0,0,0,44,36.19V34.72l-.59.15Z"></path><path class="cls-4" d="M46.59,34.78a1.56,1.56,0,0,0-.82-.23H45v.6h.75a1.06,1.06,0,0,1,1,1.05v1H44.75v.59H47.4V36.19a1.6,1.6,0,0,0-.22-.82A1.52,1.52,0,0,0,46.59,34.78Z"></path><path class="cls-4" d="M49,34.77a1.45,1.45,0,0,0-.6.6,1.59,1.59,0,0,0-.22.83,1.48,1.48,0,0,0,.23.8,1.81,1.81,0,0,0,.59.61,1.52,1.52,0,0,0,.8.23h1l-2,1.33.33.49,2.32-1.55V34.55H49.84A1.6,1.6,0,0,0,49,34.77Zm1.88,2.48H49.84a1,1,0,0,1-.52-.15,1.09,1.09,0,0,1-.39-.38,1.05,1.05,0,0,1,0-1,1.21,1.21,0,0,1,.39-.39,1.07,1.07,0,0,1,.52-.14H50.9Z"></path><path class="cls-4" d="M74.15,34.78a1.65,1.65,0,0,0-.83-.23H71.68v1.64a1,1,0,0,1-.31.75,1.06,1.06,0,0,1-.75.31h-6V36.19a1.71,1.71,0,0,0-.22-.82,1.57,1.57,0,0,0-.61-.59,1.6,1.6,0,0,0-.83-.23H61.66l-.13.6H63a1,1,0,0,1,.75.31,1,1,0,0,1,.31.73v1.06H54.91V36.19a1.6,1.6,0,0,0-.22-.82,1.67,1.67,0,0,0-.59-.59,1.6,1.6,0,0,0-.83-.23h-.74v.6h.74a1,1,0,0,1,.75.31,1,1,0,0,1,.3.74v1H52.26v.59H70.62a1.55,1.55,0,0,0,.77-.2,1.64,1.64,0,0,0,.58-.53,1.64,1.64,0,0,0,.58.53,1.61,1.61,0,0,0,.77.2,1.64,1.64,0,0,0,.83-.22,1.72,1.72,0,0,0,.6-.6,1.59,1.59,0,0,0,.22-.83,1.55,1.55,0,0,0-.22-.82A1.62,1.62,0,0,0,74.15,34.78Zm-.09,2.16a1,1,0,0,1-1.48,0,1,1,0,0,1-.31-.75v-1h1a1,1,0,0,1,.74.31,1,1,0,0,1,.31.73A1,1,0,0,1,74.06,36.94Z"></path><rect class="cls-4" x="78.84" y="34.8" width="0.69" height="0.58"></rect><path class="cls-4" d="M80.86,38.35a1,1,0,0,1-.31.75,1,1,0,0,1-.74.32h-.89a.93.93,0,0,1-.52-.15,1.21,1.21,0,0,1-.39-.39,1.1,1.1,0,0,1-.14-.53V36.52l-.6.15v1.68A1.64,1.64,0,0,0,78.92,40h.89a1.59,1.59,0,0,0,.83-.22,1.72,1.72,0,0,0,.6-.6,1.59,1.59,0,0,0,.22-.83V34.72l-.6.15Z"></path><path class="cls-4" d="M83.08,34.77a1.53,1.53,0,0,0-.61.6,1.59,1.59,0,0,0-.22.83,1.57,1.57,0,0,0,.23.8,1.75,1.75,0,0,0,.6.61,1.51,1.51,0,0,0,.79.23h1l-2,1.33.33.49,2.33-1.55V34.55H83.9A1.58,1.58,0,0,0,83.08,34.77ZM85,37.25h-1a1,1,0,0,1-.52-.15,1,1,0,0,1-.39-.38,1,1,0,0,1-.14-.53,1,1,0,0,1,.14-.52,1.12,1.12,0,0,1,.39-.39,1,1,0,0,1,.52-.14h1Z"></path><path class="cls-4" d="M95.82,34.87v1.32a1.06,1.06,0,0,1-1.06,1.06H89V36.19a1.71,1.71,0,0,0-.22-.82,1.62,1.62,0,0,0-.6-.59,1.56,1.56,0,0,0-.82-.23h-.75v.6h.75a1,1,0,0,1,1,1.05v1H86.31v.59h8.45a1.61,1.61,0,0,0,.83-.22,1.72,1.72,0,0,0,.6-.6,1.59,1.59,0,0,0,.22-.83V34.72Z"></path><rect class="cls-4" x="94.53" y="38.73" width="0.69" height="0.58"></rect><rect class="cls-4" y="37.25" width="1.72" height="0.59"></rect><rect class="cls-4" x="5.16" y="37.25" width="1.72" height="0.59"></rect><rect class="cls-4" x="10.31" y="37.25" width="1.72" height="0.59"></rect></g></g></g></svg>