<svg id="Layer_1" data-name="Layer 1" xmlns="http://www.w3.org/2000/svg" viewBox="0 0 400 400"><defs><style>.cls-1{fill:#c41011;}.cls-2{fill:#fff;}.cls-3{fill:#fff200;}.cls-4{fill:#3d3d3d;}</style></defs><rect class="cls-1" x="-19.27" y="-19.37" width="438.64" height="438.64"/><path class="cls-2" d="M328.86,203.61a3,3,0,1,0,3,3A3,3,0,0,0,328.86,203.61Zm0,3.64a.69.69,0,1,1,.68-.68A.68.68,0,0,1,328.86,207.25Z"/><path class="cls-2" d="M338,199.84a1.15,1.15,0,1,0,.33.8A1.15,1.15,0,0,0,338,199.84Z"/><path class="cls-2" d="M352.56,182h-1.22l-16-16a1.13,1.13,0,0,0-1.61,0l-4.11,4.11-16.44-4.41a1.14,1.14,0,0,0-1.39.81L307.58,182h-2.79a4.79,4.79,0,0,0-4.78,4.78c0,.06,0,.12,0,.19s0,.06,0,.09v31.11a5.7,5.7,0,0,0,5.69,5.69h46.86a5.69,5.69,0,0,0,5.69-5.69V187.7A5.69,5.69,0,0,0,352.56,182Zm-1,2.27h1A3.42,3.42,0,0,1,356,187.7v9.11a2.7,2.7,0,0,1-2.69,2.7h-1.17V195a5.7,5.7,0,0,0-5.57-5.69Zm-20.83-12.13h0l3.77-3.77,14.87,14.87-6,6h-2.08l2.72-2.72a1.13,1.13,0,0,0,0-1.61,2.37,2.37,0,0,1,0-3.34,1.13,1.13,0,0,0,0-1.61l-6.23-6.23a1.13,1.13,0,0,0-1.61,0,2.37,2.37,0,0,1-3.34,0,1.13,1.13,0,0,0-1.61,0l-15.52,15.51h-2.08ZM327.37,185a5.43,5.43,0,0,0-5.3,4.27h-3.16l13.2-13.2a4.65,4.65,0,0,0,4.75,0l4.83,4.83a4.65,4.65,0,0,0,0,4.75l-3.63,3.62h-5.39A5.43,5.43,0,0,0,327.37,185Zm2.93,4.27h-5.86a3.15,3.15,0,0,1,5.86,0Zm-17.89-2,3-11.24a4.68,4.68,0,0,0,4.12-2.38l5.12,1.37-7.43,7.43Zm1.23-19.08,14.08,3.77-1.21,1.2-7.35-2a1.17,1.17,0,0,0-.86.12,1.15,1.15,0,0,0-.53.69,2.3,2.3,0,0,1-1.1,1.43,2.34,2.34,0,0,1-1.79.24,1.15,1.15,0,0,0-1.4.8l-4,14.85H308Zm-8.85,16.12H307l-1.34,5h-.84a2.51,2.51,0,0,1,0-5ZM356,218.18a3.41,3.41,0,0,1-3.41,3.41H351a5.68,5.68,0,0,0,1.14-3.41v-4.57h.68a5.37,5.37,0,0,0,3.18-1Zm0-10a3.18,3.18,0,0,1-3.18,3.19H328.9a4.78,4.78,0,0,1,0-9.56h3.45a1.14,1.14,0,1,0,0-2.27H328.9a7,7,0,1,0,0,14.1h20.93v4.57a3.4,3.4,0,0,1-3.36,3.41H307.75v-12.8a1.14,1.14,0,1,0-2.28,0v12.8a3.42,3.42,0,0,1-3.18-3.41V190.85a4.73,4.73,0,0,0,2.5.71h41.63a3.42,3.42,0,0,1,3.41,3.42v4.53h-8.22a1.14,1.14,0,1,0,0,2.27h11.67A4.94,4.94,0,0,0,356,201v7.16Z"/><path class="cls-2" d="M307.42,203.54a1.18,1.18,0,0,0-.81-.33,1.14,1.14,0,0,0-.8.33,1.19,1.19,0,0,0-.34.81,1.16,1.16,0,0,0,1.14,1.14,1.19,1.19,0,0,0,.81-.34,1.14,1.14,0,0,0,.33-.8A1.18,1.18,0,0,0,307.42,203.54Z"/><path class="cls-2" d="M71.31,202.49l-3.74,2c.37.88.82,2.11,1.35,3.7a23.33,23.33,0,0,1,1,4.18c0,.29-.53.64-1.45,1a17.47,17.47,0,0,1-4,1,38.52,38.52,0,0,1-6.05.43,32,32,0,0,1-5.89-.49,11.23,11.23,0,0,1-3.85-1.36,3,3,0,0,1-1.56-2,7.59,7.59,0,0,1,.16-2.09,22.82,22.82,0,0,1,.64-2.49c.1-.29.18-.56.24-.8L44.77,204a20.49,20.49,0,0,0-1.22,4,14.4,14.4,0,0,0-.3,4,6.77,6.77,0,0,0,2.11,4.38,12.18,12.18,0,0,0,5.28,2.72,30,30,0,0,0,7.65.93h.4a31.92,31.92,0,0,0,7.44-.85,13.14,13.14,0,0,0,5.45-2.6,5.63,5.63,0,0,0,2.11-4.22,18.32,18.32,0,0,0-.69-4.85A32.3,32.3,0,0,0,71.31,202.49Z"/><path class="cls-2" d="M53.26,205.77l1.61,1.62,1.57-1.58q.54-.52,1.62-1.65c-.69-.69-1.22-1.2-1.58-1.55L54.87,201l-1.55,1.55-1.63,1.63Z"/><path class="cls-2" d="M60.3,205.77c.36.36.91.9,1.66,1.62l1.55-1.58,1.59-1.65-1.57-1.55c-.36-.34-.9-.87-1.61-1.59l-1.56,1.55-1.63,1.63Z"/><path class="cls-2" d="M95.18,190.71l-4.38,1v0q.67,5.17,1,8.79c.2,2.42.29,5,.29,7.6a5.36,5.36,0,0,1-1.91,4.3,11.93,11.93,0,0,1-4.84,2.37q.95-3.18-.15-8.38a55,55,0,0,0-4.36-12.25l-3.7,2.54a71.46,71.46,0,0,1,4.18,11.56c.79,3.13.86,5.55.24,7.29-1.11.16-2.28.3-3.54.41l1.27,4.81a27.27,27.27,0,0,0,8.52-1.71,15,15,0,0,0,6.16-4.21,10.35,10.35,0,0,0,2.43-6.77c0-2.81-.06-5.58-.26-8.29S95.6,194.06,95.18,190.71Z"/><path class="cls-2" d="M195.05,203.29a5.1,5.1,0,0,0-2.59.91,10.28,10.28,0,0,0-2.31,2.23,26.56,26.56,0,0,0-2.15,3.38l-.47.92a7.89,7.89,0,0,1-2.33,2.8,4.84,4.84,0,0,1-2.85.94h-1.87a8.51,8.51,0,0,1-3.2-.56,6.8,6.8,0,0,1-1.84-1.07,18.55,18.55,0,0,1,2.54-1.16l-.16-4.57a19.23,19.23,0,0,1-3.4-1,35.59,35.59,0,0,1-3.64-1.71l-.52-.28h0a48,48,0,0,0-4.42-2,9.55,9.55,0,0,0-3.14-.57,7.07,7.07,0,0,0-4.44,1.41,11.49,11.49,0,0,0-3.36,4.32l2.9,2.1a7.37,7.37,0,0,1,2-2,4.4,4.4,0,0,1,2.79-.86,9.56,9.56,0,0,1,2.9.5,21.83,21.83,0,0,1,3.27,1.37,30.08,30.08,0,0,0,3.52,1.54,42.12,42.12,0,0,1-5.75,2.56,35.26,35.26,0,0,1-5.73,1.49,36.49,36.49,0,0,1-6.13.5H151.4l-1.35,0c-.5,0-1,.05-1.44.09a8.78,8.78,0,0,0,1.44-4.15,7.39,7.39,0,0,0-.76-4.12,7,7,0,0,0-2.81-2.9,8.23,8.23,0,0,0-4.19-1.06q-4,0-8,3.56a30.11,30.11,0,0,0-6.06,7.78,4.19,4.19,0,0,1-1-1.91,12.89,12.89,0,0,1,0-4.85l-3.74-.76a20.91,20.91,0,0,1-1.1,4.8,5.59,5.59,0,0,1-1.89,2.62,5.19,5.19,0,0,1-3.1.86h-1.63a22.4,22.4,0,0,0-.88-4.12,13.93,13.93,0,0,0-3-5.33,5.45,5.45,0,0,0-8.69.14,11.22,11.22,0,0,0-2.57,5.29,8.48,8.48,0,0,0,.46,5.37,5.12,5.12,0,0,0,2.86,2.71,14.06,14.06,0,0,0,4.46,1c1,.07,2.16.1,3.53.12a6.09,6.09,0,0,1-1,1.85,10.54,10.54,0,0,1-4.15,2.94,37.24,37.24,0,0,1-7.28,2.21l1.55,4.5a23.63,23.63,0,0,0,8-2.83,14.61,14.61,0,0,0,5.12-4.85,11.67,11.67,0,0,0,1.49-3.84l1.75,0h0a8.73,8.73,0,0,0,4.4-1,8.12,8.12,0,0,0,2.88-3,7.29,7.29,0,0,0,3.32,3.58,13.52,13.52,0,0,0,6.43,1.28,23.59,23.59,0,0,0,7.84-1.22c.16-.05.3-.12.46-.18l.31.08a17.71,17.71,0,0,0,3.27.4c1.19,0,2.93.08,5.19.08h2.39a32.45,32.45,0,0,0,12.79-2.45q2.34-.94,5.27-2.45a7.89,7.89,0,0,0,2.84,3.23,12.86,12.86,0,0,0,6.83,1.67h.71a8.32,8.32,0,0,0,4.6-1.29,7.93,7.93,0,0,0,1.91-1.76c4.74,3,8.12,3.91,10.13,2.73s3-2.94,3.28-5.63a11.31,11.31,0,0,0-1.59-7.3A5.76,5.76,0,0,0,195.05,203.29Zm-87.28,11Q105,214,104.29,213a2.57,2.57,0,0,1-.18-2.13,5,5,0,0,1,1.31-2.37,2.26,2.26,0,0,1,2-.8,3.83,3.83,0,0,1,2.49,1.69,10.82,10.82,0,0,1,1.67,3.69c.12.46.22.94.3,1.41C110.28,214.42,108.89,214.36,107.77,214.25Zm25.72,1.13a14.59,14.59,0,0,1-1.85-.15,25.21,25.21,0,0,1,4.3-5,10.81,10.81,0,0,1,6.35-3,4.82,4.82,0,0,1,3,.77,2.15,2.15,0,0,1,1,2,3.94,3.94,0,0,1-1.77,2.63,13,13,0,0,1-4.52,2.05A23.14,23.14,0,0,1,133.49,215.38Zm64-.43c-.42.29-1.38.11-2.88-.52a25.54,25.54,0,0,1-3.65-2,16.1,16.1,0,0,1,2.12-3.27,3.16,3.16,0,0,1,2.19-1.28,2.71,2.71,0,0,1,2.38,1.48,5.87,5.87,0,0,1,.9,3.22A2.54,2.54,0,0,1,197.51,215Z"/><path class="cls-2" d="M282.4,209.69c-.59-1.64-2.36-3.33-5.29-5.05a70.67,70.67,0,0,0-13.75-5.53l-1.91,4.73,1.24.35a9.51,9.51,0,0,0-.6.87,11.66,11.66,0,0,0-1.63,4.32,5.88,5.88,0,0,0,1.33,5c-1,.06-2.17.09-3.4.09h-.68a1.92,1.92,0,0,1-1.65-1.1,19.08,19.08,0,0,1-1.49-3.84,12.08,12.08,0,0,0-2.49-4.69,5,5,0,0,0-4-1.55,4.83,4.83,0,0,0-2.58.85,10.28,10.28,0,0,0-2.31,2.19,30.09,30.09,0,0,0-2.23,3.36l-.59,1a8.44,8.44,0,0,1-2.33,2.8,4.66,4.66,0,0,1-2.81.94h-1a4.18,4.18,0,0,1-2-.38,2.44,2.44,0,0,1-1-1.35,13.47,13.47,0,0,1-.55-3c-.11-.69-.37-3-.8-6.84-.13-1.41-.28-2.81-.44-4.22l-4.17.88c.11.86.22,1.65.31,2.38a24.87,24.87,0,0,0-6.16,3.37,7.81,7.81,0,0,0-3.19,5.27,5.54,5.54,0,0,0,1.36,4.67,7.73,7.73,0,0,0,4.81,2.29,14.46,14.46,0,0,0,6.24-.59,5.59,5.59,0,0,0,1.78,1.75,7.38,7.38,0,0,0,3.84.91h.91a8.52,8.52,0,0,0,3.66-.78,7.69,7.69,0,0,0,2.87-2.28q7.13,4.53,10.1,2.74a3.73,3.73,0,0,0,1.26-1,4.1,4.1,0,0,0,.81-1.47,5.5,5.5,0,0,0,1.62,2,3.68,3.68,0,0,0,2.32.74h.68a36.43,36.43,0,0,0,8.61-.84c.39-.09.74-.21,1.1-.33a18.89,18.89,0,0,0,7.2,1.13q5.77-.19,7-4.06A9,9,0,0,0,282.4,209.69Zm-58.57,3.07a5.44,5.44,0,0,1-2.88-.64,1.67,1.67,0,0,1-1-1.59c.08-.77.88-1.58,2.39-2.43a19.35,19.35,0,0,1,3.65-1.55v.08l.52,3.82c.07.66.16,1.26.27,1.84A10.72,10.72,0,0,1,223.83,212.76Zm27.68,1.87a3.86,3.86,0,0,1-.2.67,3.28,3.28,0,0,1-1.57-.06,12.34,12.34,0,0,1-2.69-.91,21.34,21.34,0,0,1-3.26-1.89l.36-.64a15.21,15.21,0,0,1,1.39-2.17,5.9,5.9,0,0,1,1.33-1.29,2.31,2.31,0,0,1,1.25-.44,2.48,2.48,0,0,1,2,1.16,6.89,6.89,0,0,1,1.18,2.7A10,10,0,0,1,251.51,214.63Zm17.21-8.57a3.28,3.28,0,0,1,1.15.67,4,4,0,0,1,1.09,1.61,3.6,3.6,0,0,1,.2,1.91q-.35,2.16-3.29,3.18l-.31-.14c-2.27-1.1-3.39-2.32-3.36-3.68a3.31,3.31,0,0,1,.62-1.91,4.29,4.29,0,0,1,1.53-1.41,3,3,0,0,1,1.83-.38,3,3,0,0,1,.43.11Zm10.16,7.41q-.56,1.75-4.24,1.61c-.54,0-1.07-.07-1.6-.14a10.34,10.34,0,0,0,1.5-4.13,9.1,9.1,0,0,0,0-2.27,15.31,15.31,0,0,1,3,2C278.8,211.59,279.23,212.57,278.88,213.47Z"/><rect class="cls-3" x="187.99" y="169.3" width="95.45" height="21.06" rx="9.32"/><path class="cls-4" d="M206.69,185a4.88,4.88,0,0,0,1-1,1.49,1.49,0,0,0,.39-.9,7.49,7.49,0,0,0-.2-1.24c-.14-.6-.29-1.23-.47-1.9l1.12-.43a17.4,17.4,0,0,1,.47,1.89,9.64,9.64,0,0,1,.18,1.68,2.87,2.87,0,0,1-.44,1.5,4.77,4.77,0,0,1-1.24,1.31,7.05,7.05,0,0,1-1.8,1l-.54-1.19A6.12,6.12,0,0,0,206.69,185Zm.63-8.11.48-.49.51.5.48.47-.49.51c-.11.12-.28.28-.5.48l-.5-.49-.48-.48Zm1.43,5.83a4.59,4.59,0,0,1-.77-1.63l.85-.53a2.42,2.42,0,0,0,.45,1,.9.9,0,0,0,.73.31h.12l.06.68-.06.7H210A1.54,1.54,0,0,1,208.75,182.74Z"/><path class="cls-4" d="M210,181.93h.1a9.67,9.67,0,0,0,1.52-.09,2.13,2.13,0,0,0,.79-.26,1,1,0,0,0,.35-.5,2.37,2.37,0,0,0,.05-.69c0-.27-.06-.61-.13-1v-.09l1.06-.2a13,13,0,0,1,.16,2,1,1,0,0,0,.36.6,1.17,1.17,0,0,0,.73.21h.07l.08.68-.08.7H215a1.84,1.84,0,0,1-1.11-.36,2,2,0,0,1-.7-.92l.28.06a1.59,1.59,0,0,1-.57.72,2.54,2.54,0,0,1-1,.38,9.9,9.9,0,0,1-1.73.12H210Zm1.49,3.95-.48.47-.47-.48-.48-.47.48-.48.47-.46.49.47.47.47Zm2.24,0c-.1.11-.26.27-.47.47l-.47-.48-.48-.47.48-.48.47-.46.49.47.47.47Z"/><path class="cls-4" d="M214.93,181.93h.35a7.38,7.38,0,0,0,1.89-.19,1.66,1.66,0,0,0,1-.58,1.35,1.35,0,0,0-.17-.93,5.23,5.23,0,0,0-.9-1.22,13,13,0,0,0-1.55-1.39l.13-1.26,4.65-2,.39,1.12-3.85,1.66.36.32a8.7,8.7,0,0,1,1.65,2.05,2.43,2.43,0,0,1,.31,2,2.19,2.19,0,0,1-1.3,1.35,6.5,6.5,0,0,1-2.58.44h-.35Zm.87-7.06,4-1.71.19.52-4.29,1.83Zm4.53,8.09a4.13,4.13,0,0,1-1-1c-.31-.4-.74-1-1.28-1.84a1.77,1.77,0,0,0-.17-.24l.75-.74c.43.69.8,1.22,1.09,1.6a4,4,0,0,0,.85.85,1.48,1.48,0,0,0,.86.29h.18l.07.68-.07.7h-.18A2,2,0,0,1,220.33,183Z"/><path class="cls-4" d="M221.5,181.93h.66a3,3,0,0,0,1.42-.25.81.81,0,0,0,.42-.77,4.13,4.13,0,0,0-.25-1.14,9.45,9.45,0,0,0-.42-1.15l1-.57a10.8,10.8,0,0,1,.49,1.42,5.55,5.55,0,0,1,.25,1.5,2.06,2.06,0,0,1-.77,1.74,3.48,3.48,0,0,1-2.19.6h-.66Zm1.48-6.05.49-.48c.23.22.4.38.5.5s.27.27.49.47l-.5.51c-.11.12-.27.27-.49.48l-.5-.5-.49-.48Z"/><path class="cls-4" d="M226.68,180.58c0-1.2,0-2.41-.08-3.6a22.21,22.21,0,0,0-.18-2.39l1.2-.27c.06.42.12,1.23.18,2.45s.08,2.47.08,3.73a26.73,26.73,0,0,1-.1,2.87l-1.19-.14A22.22,22.22,0,0,0,226.68,180.58Z"/><path class="cls-4" d="M235.41,183.16a3.68,3.68,0,0,1-1.65-.85,2.11,2.11,0,0,1-.65-1.35,3.91,3.91,0,0,1,.09-1.25,5.82,5.82,0,0,1,.38-1.22l1,.48a1,1,0,0,0-.06.26,7.16,7.16,0,0,0-.23.81,2.06,2.06,0,0,0,0,.69,1,1,0,0,0,.49.7,3.39,3.39,0,0,0,1.24.46,10,10,0,0,0,2,.17,7.79,7.79,0,0,1,0,1.37A9.46,9.46,0,0,1,235.41,183.16Zm1.22-5c.1-.11.26-.26.47-.47l.47.48.48.47-.48.49-.47.46-.49-.48-.47-.47Zm1.24,3.91a10.6,10.6,0,0,0,2.52-.25,3,3,0,0,0,2.34-2.18l1.07.11a3.89,3.89,0,0,0-.23,1.2,1,1,0,0,0,.25.74,1,1,0,0,0,.76.25l.08.68-.08.7a2.07,2.07,0,0,1-1-.24,1.63,1.63,0,0,1-.68-.67,2,2,0,0,1-.25-1l.25,0a4.08,4.08,0,0,1-1.2,1.18,5,5,0,0,1-1.66.65,10.85,10.85,0,0,1-2.18.19A10.44,10.44,0,0,1,237.87,182.06Zm1-3.91c.1-.11.26-.26.47-.47l.47.48.48.47-.48.49-.47.46-.49-.48-.47-.47Z"/><path class="cls-4" d="M244.43,181.93h.3a10.54,10.54,0,0,0,2.19-.18,3.09,3.09,0,0,0,1.21-.48,1.63,1.63,0,0,0,.54-.78,1.5,1.5,0,0,0-.39-1.18.79.79,0,0,0-.52-.26.89.89,0,0,0-.6.13,1.16,1.16,0,0,0-.46.47,1.92,1.92,0,0,0-.23.66,1.18,1.18,0,0,0,.33.79,2.36,2.36,0,0,0,1,.6,4.86,4.86,0,0,0,1.57.23h1.24l.07.68-.07.7h-.78a6.23,6.23,0,0,1-2.4-.43,3.54,3.54,0,0,1-1.59-1.14,2.07,2.07,0,0,1-.43-1.55,3.41,3.41,0,0,1,.47-1.32,2.53,2.53,0,0,1,.9-.91,1.74,1.74,0,0,1,1.1-.25,1.81,1.81,0,0,1,1.05.52,2.86,2.86,0,0,1,.67,1.1,2.77,2.77,0,0,1,.12,1.27,2.56,2.56,0,0,1-1.42,2,7.63,7.63,0,0,1-3.57.67h-.3Zm2.85-6.45.48-.49.51.5c.11.12.27.27.48.48l-.49.51-.5.47-.5-.49-.48-.48Z"/><path class="cls-4" d="M250.45,181.93h.36a7.38,7.38,0,0,0,1.89-.19,1.63,1.63,0,0,0,1-.58,1.35,1.35,0,0,0-.17-.93,5.23,5.23,0,0,0-.9-1.22,12.81,12.81,0,0,0-1.54-1.39l.12-1.26,4.65-2,.39,1.12-3.85,1.66c.14.11.26.22.37.32a8.65,8.65,0,0,1,1.64,2.05,2.44,2.44,0,0,1,.32,2,2.23,2.23,0,0,1-1.31,1.35,6.45,6.45,0,0,1-2.57.44h-.36Zm.88-7.06,4-1.71.19.52-4.3,1.83Zm4.52,8.09a4.33,4.33,0,0,1-1-1c-.31-.4-.73-1-1.28-1.84a1.18,1.18,0,0,0-.17-.24l.75-.74c.44.69.8,1.22,1.1,1.6a3.77,3.77,0,0,0,.85.85,1.46,1.46,0,0,0,.86.29h.17l.08.68-.08.7H257A2,2,0,0,1,255.85,183Z"/><path class="cls-4" d="M257.05,183.31l-.08-.7.08-.68h.06a1.93,1.93,0,0,0,.85-.2,1.69,1.69,0,0,0,.62-.52,2.77,2.77,0,0,0,.38-.7c.09-.26.17-.53.24-.82,0,0,0,0,0-.06l1.06.11a.44.44,0,0,1,0,.1l-.15.63q-.06.33-.09.6a1,1,0,0,0,.14.64.59.59,0,0,0,.52.22h0l.08.68-.08.7h0a1.44,1.44,0,0,1-1-.33,1.48,1.48,0,0,1-.49-.89,2.9,2.9,0,0,1-.94.91,2.32,2.32,0,0,1-1.17.31Zm3.62-1.38h0a1,1,0,0,0,.64-.22,2,2,0,0,0,.5-.6,2.64,2.64,0,0,0,.26-.72,8,8,0,0,0,.17-.85h0l1.06,0,0,.11c0,.16-.06.35-.08.56a3.17,3.17,0,0,0-.05.58,1.27,1.27,0,0,0,.22.82.8.8,0,0,0,.68.29h0l.09.68-.09.7h0a1.64,1.64,0,0,1-1.16-.41,1.94,1.94,0,0,1-.57-1.16l.24,0a3.47,3.47,0,0,1-.48.82,2.19,2.19,0,0,1-.65.57,1.52,1.52,0,0,1-.78.21h0Zm.53-5.6.45-.44.22.22.22.22.47.46-.47.45-.44.46c-.21-.21-.37-.36-.46-.46a5.67,5.67,0,0,0-.44-.45Zm1.21-1.36.41-.41c.18.19.31.33.4.41l.4.4-.31.32L263,176l-.17.18a2.4,2.4,0,0,1-.23-.23l-.22-.21a1.46,1.46,0,0,0-.18-.18l-.18-.19Zm.92,1.58a3.37,3.37,0,0,0,.25-.26c.13-.13.27-.27.42-.4l.45.46.43.44-.44.45-.46.46-.2-.22-.24-.23-.23-.23-.24-.23Zm.74,5.38h0a.83.83,0,0,0,.67-.26,1,1,0,0,0,.22-.7,4.1,4.1,0,0,0-.24-1.15,10.47,10.47,0,0,0-.44-1.19l1-.57a10.21,10.21,0,0,1,.5,1.4,5.5,5.5,0,0,1,.25,1.52,2.88,2.88,0,0,1-.24,1.19,2,2,0,0,1-.71.83,1.79,1.79,0,0,1-1,.31h0Z"/></svg>